<svg width="41" height="56" viewBox="0 0 41 56" fill="none" xmlns="http://www.w3.org/2000/svg">
<path d="M26.3977 10.4985C29.6579 10.4985 32.303 8.14724 32.303 5.24923C32.303 2.35122 29.6579 0 26.3977 0C23.1374 0 20.4923 2.35122 20.4923 5.24923C20.4923 8.14724 23.1374 10.4985 26.3977 10.4985ZM38.0239 26.8039L35.1573 25.5134L33.9639 22.2983C32.1554 17.4209 27.1112 14.0089 21.3904 13.9979C16.9613 13.987 14.5131 15.1025 9.91179 16.7538C7.25437 17.7052 5.07676 19.5096 3.79725 21.8062L2.97296 23.2935C2.01334 25.0213 2.78842 27.121 4.71997 27.985C6.63922 28.8489 8.97677 28.149 9.9487 26.4211L10.773 24.9338C11.2036 24.1683 11.9172 23.5669 12.803 23.2497L16.1001 22.0686L14.2301 28.7067C13.5904 30.9814 14.2793 33.3982 16.0632 35.137L23.4327 42.2891C24.3185 43.1531 24.9459 44.192 25.2658 45.3184L27.5172 53.3344C28.0462 55.2044 30.1869 56.3527 32.2907 55.8824C34.3945 55.4122 35.6863 53.5093 35.1573 51.6393L32.4261 41.9064C32.1062 40.78 31.4788 39.7301 30.5929 38.8771L24.9951 33.442L27.1112 25.929L27.7879 27.7334C28.4399 29.4941 29.8425 30.9486 31.6879 31.7797L34.5545 33.0702C36.4737 33.9341 38.8113 33.2342 39.7832 31.5063C40.7305 29.7894 39.9554 27.6678 38.0239 26.8039ZM9.86258 42.1907C9.46889 43.0765 8.87835 43.8748 8.11557 44.5419L1.96413 50.0208C0.426265 51.3878 0.426265 53.6078 1.96413 54.9748C3.50199 56.3417 5.98717 56.3417 7.52503 54.9748L14.8329 48.4788C15.5834 47.8117 16.174 47.0134 16.58 46.1276L18.2408 42.4313C11.4373 35.8369 13.4796 37.8601 12.4093 36.5587L9.86258 42.1907Z" fill="#FFCC00"/>
</svg>
