<svg width="56" height="56" viewBox="0 0 56 56" fill="none" xmlns="http://www.w3.org/2000/svg">
<path d="M14.176 10.3877C15.9491 9.5506 17.9768 9.45824 19.813 10.131C21.6492 10.8037 23.1435 12.1864 23.9672 13.9749L29.8679 26.7871L41.2309 21.4222C41.8041 21.1515 42.4241 20.9974 43.0556 20.9687C43.6871 20.9399 44.3176 21.037 44.9112 21.2545C45.5048 21.472 46.0499 21.8056 46.5152 22.2362C46.9806 22.6668 47.3572 23.186 47.6234 23.7642L55.5329 40.938L51.1768 42.9947L48.4549 37.0847L43.2594 25.8228L27.5301 33.2492L19.6018 16.0342C19.3158 15.4134 18.7971 14.9335 18.1598 14.6999C17.5224 14.4664 16.8185 14.4985 16.2031 14.7891C15.5876 15.0797 15.1109 15.605 14.8779 16.2494C14.6449 16.8939 14.6746 17.6047 14.9605 18.2255L27.2403 44.8889L15.98 41.504L15.6963 41.4342C14.971 41.2932 14.2189 41.4314 13.5878 41.8216C12.9567 42.2119 12.4922 42.8259 12.2854 43.5431L12.2161 43.8349C12.0827 44.5649 12.224 45.318 12.6125 45.9465C13.0009 46.575 13.6083 47.0335 14.3155 47.2319L22.8331 49.623L30.5545 52.7312L25.0985 55.3072L13.0145 51.9145C11.0985 51.377 9.46244 50.1155 8.44474 48.3912C7.42705 46.6668 7.10558 44.6114 7.54682 42.6501L7.66458 42.1943C8.22342 40.2582 9.49713 38.6111 11.2221 37.5938C12.9471 36.5765 14.9914 36.2668 16.932 36.7289L17.365 36.846L18.3613 37.144L10.5978 20.2871C9.77425 18.4988 9.68854 16.4513 10.3596 14.5949C11.0306 12.7385 12.4034 11.2251 14.176 10.3877ZM9.88491 1.69343C17.9205 -2.10048 27.4603 1.39459 31.1933 9.50014C32.0919 11.4448 32.597 13.5521 32.679 15.6987C32.7609 17.8453 32.4181 19.988 31.6706 22.0016L26.8561 11.5479L26.8285 11.5609C26.1972 10.1955 25.3022 8.97185 24.196 7.96149C23.0897 6.95113 21.7944 6.1744 20.3859 5.67676C18.9773 5.17912 17.4838 4.97057 15.9928 5.06332C14.5018 5.15607 13.0432 5.54826 11.7025 6.21693C10.3617 6.8856 9.16573 7.81732 8.18451 8.95753C7.20329 10.0978 6.45655 11.4236 5.988 12.8574C5.51945 14.2912 5.33851 15.8042 5.45577 17.3078C5.57303 18.8114 5.98613 20.2754 6.6709 21.6141L11.3016 31.665C9.28571 30.9546 7.43234 29.8429 5.85099 28.3956C4.26963 26.9484 2.99235 25.1949 2.09459 23.2387C-1.63843 15.1332 1.8493 5.48733 9.88491 1.69343Z" fill="#007AFF"/>
</svg>
