<svg width="41" height="65" viewBox="0 0 41 65" fill="none" xmlns="http://www.w3.org/2000/svg">
<path d="M40.5684 36.1967C40.5684 35.1433 39.7325 34.2897 38.704 34.2897C37.6735 34.2897 36.8377 35.1433 36.8377 36.1967C36.8377 45.4483 29.4734 52.9752 20.4215 52.9752C11.3695 52.9752 4.00344 45.4483 4.00344 36.1967C4.00344 35.1433 3.16918 34.2897 2.1389 34.2897C1.11037 34.2897 0.274353 35.1433 0.274353 36.1967C0.274353 46.9064 8.31898 55.725 18.5551 56.6917V60.4507H13.0801C12.0516 60.4507 11.2155 61.3042 11.2155 62.3577C11.2155 63.4092 12.0516 64.2627 13.0801 64.2627H27.7626C28.7912 64.2627 29.6271 63.4092 29.6271 62.3577C29.6271 61.3043 28.7912 60.4507 27.7626 60.4507H22.2859V56.6917C32.5237 55.7268 40.5684 46.9064 40.5684 36.1967ZM7.59275 36.1967C7.59275 43.4266 13.3469 49.3081 20.4214 49.3081C27.494 49.3081 33.2482 43.4266 33.2482 36.1967V13.7646C33.2482 6.53469 27.494 0.653198 20.4214 0.653198C13.3469 0.653198 7.59275 6.53476 7.59275 13.7646V24.856C7.5891 24.9002 7.56795 24.9373 7.56795 24.9815V32.4553C7.56795 32.4995 7.5891 32.5367 7.59275 32.5809V36.1967ZM29.5194 36.1967C29.5194 41.3235 25.437 45.4943 20.4215 45.4943C15.4042 45.4943 11.3234 41.3235 11.3234 36.1967V34.3623H29.5194V36.1967ZM11.3234 13.7646C11.3234 8.63778 15.4041 4.46523 20.4215 4.46523C25.437 4.46523 29.5194 8.63778 29.5194 13.7646V23.0746H11.3234V13.7646ZM11.2987 26.8866H29.5194V30.5484H11.2987V26.8866Z" fill="#34C759"/>
</svg>
